<?xml version="1.0" encoding="UTF-8"?>
<svg width="152px" height="132px" viewBox="0 0 152 132" version="1.1" xmlns="http://www.w3.org/2000/svg" xmlns:xlink="http://www.w3.org/1999/xlink">
    <title>Group 3@1x</title>
    <defs>
        <filter x="-10.0%" y="-4.0%" width="113.3%" height="116.0%" filterUnits="objectBoundingBox" id="filter-1">
            <feOffset dx="-8" dy="8" in="SourceAlpha" result="shadowOffsetOuter1"></feOffset>
            <feColorMatrix values="0 0 0 0 0   0 0 0 0 0   0 0 0 0 0  0 0 0 0.72 0" type="matrix" in="shadowOffsetOuter1" result="shadowMatrixOuter1"></feColorMatrix>
            <feMerge>
                <feMergeNode in="shadowMatrixOuter1"></feMergeNode>
                <feMergeNode in="SourceGraphic"></feMergeNode>
            </feMerge>
        </filter>
        <linearGradient x1="0%" y1="15.2777778%" x2="100%" y2="84.7222222%" id="linearGradient-2">
            <stop stop-color="#E4669F" offset="0%"></stop>
            <stop stop-color="#F5AAC5" offset="100%"></stop>
        </linearGradient>
        <filter x="-10.0%" y="-4.0%" width="113.3%" height="116.0%" filterUnits="objectBoundingBox" id="filter-3">
            <feOffset dx="-8" dy="8" in="SourceAlpha" result="shadowOffsetOuter1"></feOffset>
            <feColorMatrix values="0 0 0 0 0   0 0 0 0 0   0 0 0 0 0  0 0 0 0.72 0" type="matrix" in="shadowOffsetOuter1" result="shadowMatrixOuter1"></feColorMatrix>
            <feMerge>
                <feMergeNode in="shadowMatrixOuter1"></feMergeNode>
                <feMergeNode in="SourceGraphic"></feMergeNode>
            </feMerge>
        </filter>
        <linearGradient x1="0%" y1="15.2777778%" x2="100%" y2="84.7222222%" id="linearGradient-4">
            <stop stop-color="#CCCCCC" offset="0%"></stop>
            <stop stop-color="#F5F5F5" offset="100%"></stop>
        </linearGradient>
        <path d="M15.3833112,0 L33.4816787,0 C35.4798549,0 36.7350681,0.112191516 37.9230188,0.385984764 C39.1109695,0.659778012 40.162106,1.09517299 41.195715,1.74157992 C42.2293241,2.38798685 43.1962252,3.19622524 44.6091492,4.60914916 L45.3908508,5.39085084 C46.8037748,6.80377476 47.7706759,7.61201315 48.804285,8.25842008 C49.837894,8.90482701 50.8890305,9.34022199 52.0769812,9.61401524 C53.2649319,9.88780848 54.5201451,10 56.5183213,10 L104.616689,10 C109.965801,10 111.905519,10.5569537 113.861074,11.6027962 C115.81663,12.6486388 117.351361,14.1833702 118.397204,16.1389258 C119.443046,18.0944813 120,20.0341988 120,25.3833112 L120,84.6166888 C120,89.9658012 119.443046,91.9055187 118.397204,93.8610742 C117.351361,95.8166298 115.81663,97.3513612 113.861074,98.3972038 C111.905519,99.4430463 109.965801,100 104.616689,100 L15.3833112,100 C10.0341988,100 8.09448133,99.4430463 6.13892578,98.3972038 C4.18337022,97.3513612 2.64863878,95.8166298 1.60279622,93.8610742 C0.556953667,91.9055187 0,89.9658012 0,84.6166888 L0,15.3833112 C0,10.0341988 0.556953667,8.09448133 1.60279622,6.13892578 C2.64863878,4.18337022 4.18337022,2.64863878 6.13892578,1.60279622 C8.09448133,0.556953667 10.0341988,0 15.3833112,0 Z" id="path-5"></path>
    </defs>
    <g id="Trans-Archive" stroke="none" stroke-width="1" fill="none" fill-rule="evenodd">
        <g id="Horizontal" transform="translate(-232, -170)">
            <g id="Group-3" transform="translate(240, 170)">
                <g id="Group" transform="translate(24, 0)">
                    <path d="M38,2 L38,4.5 L40.5,4.5 L40.5,7 L43,7 L43,9.5 L45.5,9.5 L45.5,12 L110.5,12 L110.5,14.5 L113,14.5 L113,17 L115.5,17 L115.5,19.5 L118,19.5 L118,90.5 L115.5,90.5 L115.5,93 L113,93 L113,95.5 L110.5,95.5 L110.5,98 L2,98 L2,2 L38,2 Z" id="Rectangle" stroke="#000000" stroke-width="4" fill="#002FA7"></path>
                    <polygon id="Rectangle" fill="#CCCCCC" style="mix-blend-mode: soft-light;" points="4 14 108.5 14 108.5 16.5 111 16.5 111 19 113.5 19 113.5 21.5 116 21.5 116 88.5 113.5 88.5 113.5 91 111 91 111 93.5 108.5 93.5 108.5 96 4 96"></polygon>
                </g>
                <g id="Rectangle" filter="url(#filter-1)" transform="translate(12, 12)">
                    <path d="M39.1715729,2 L49.1715729,12 L104.616689,12 C109.399407,12 111.161845,12.4272866 112.917877,13.3664226 C114.51974,14.2231085 115.776892,15.4802602 116.633577,17.0821235 C117.572713,18.8381552 118,20.6005932 118,25.3833112 L118,84.6166888 C118,89.3994068 117.572713,91.1618448 116.633577,92.9178765 C115.776892,94.5197398 114.51974,95.7768915 112.917877,96.6335774 C111.161845,97.5727134 109.399407,98 104.616689,98 L15.3833112,98 C10.6005932,98 8.83815518,97.5727134 7.0821235,96.6335774 C5.48026019,95.7768915 4.22310849,94.5197398 3.36642262,92.9178765 C2.4272866,91.1618448 2,89.3994068 2,84.6166888 L2,2 L39.1715729,2 Z" stroke="#333333" stroke-width="4" fill="url(#linearGradient-2)"></path>
                    <rect fill-opacity="0.3" fill="#FFFFFF" x="4" y="14" width="112" height="82" rx="8"></rect>
                </g>
                <g id="Rectangle" filter="url(#filter-3)" transform="translate(0, 24)">
                    <mask id="mask-6" fill="white">
                        <use xlink:href="#path-5"></use>
                    </mask>
                    <path stroke="#D6D6D6" stroke-width="4" d="M33.4816787,2 C35.2765438,2 36.4060365,2.08878945 37.4738438,2.33489261 C38.4399011,2.55754491 39.2946992,2.91161389 40.1352438,3.43728059 C41.0643188,4.01831314 41.9257744,4.75420148 43.1949356,6.02336272 L43.9766373,6.8050644 C45.5333239,8.36175099 46.6056706,9.24233944 47.7438137,9.95412075 C48.9704872,10.7212679 50.217962,11.2379889 51.6278061,11.5629231 C52.9359002,11.8644064 54.316834,12 56.5183213,12 L104.616689,12 C109.399407,12 111.161845,12.4272866 112.917877,13.3664226 C114.51974,14.2231085 115.776892,15.4802602 116.633577,17.0821235 C117.572713,18.8381552 118,20.6005932 118,25.3833112 L118,84.6166888 C118,89.3994068 117.572713,91.1618448 116.633577,92.9178765 C115.776892,94.5197398 114.51974,95.7768915 112.917877,96.6335774 C111.161845,97.5727134 109.399407,98 104.616689,98 L15.3833112,98 C10.6005932,98 8.83815518,97.5727134 7.0821235,96.6335774 C5.48026019,95.7768915 4.22310849,94.5197398 3.36642262,92.9178765 C2.4272866,91.1618448 2,89.3994068 2,84.6166888 L2,15.3833112 C2,10.6005932 2.4272866,8.83815518 3.36642262,7.0821235 C4.22310849,5.48026019 5.48026019,4.22310849 7.0821235,3.36642262 C8.83815518,2.4272866 10.6005932,2 15.3833112,2 Z"></path>
                    <rect fill="#CCCCCC" style="mix-blend-mode: soft-light;" mask="url(#mask-6)" x="4" y="14" width="112" height="82" rx="8"></rect>
                </g>
            </g>
        </g>
    </g>
</svg>